<?xml version="1.0" encoding="UTF-8" standalone="no"?>
<!-- Created with Inkscape (http://www.inkscape.org/) -->

<svg
   xmlns:dc="http://purl.org/dc/elements/1.1/"
   xmlns:cc="http://creativecommons.org/ns#"
   xmlns:rdf="http://www.w3.org/1999/02/22-rdf-syntax-ns#"
   xmlns:svg="http://www.w3.org/2000/svg"
   xmlns="http://www.w3.org/2000/svg"
   xmlns:xlink="http://www.w3.org/1999/xlink"
   xmlns:sodipodi="http://sodipodi.sourceforge.net/DTD/sodipodi-0.dtd"
   xmlns:inkscape="http://www.inkscape.org/namespaces/inkscape"
   id="svg2985"
   version="1.1"
   inkscape:version="0.48.2 r9819"
   width="544.159"
   height="169.18356"
   sodipodi:docname="Paul Biegel.svg">
  <metadata
     id="metadata2991">
    <rdf:RDF>
      <cc:Work
         rdf:about="">
        <dc:format>image/svg+xml</dc:format>
        <dc:type
           rdf:resource="http://purl.org/dc/dcmitype/StillImage" />
      </cc:Work>
    </rdf:RDF>
  </metadata>
  <defs
     id="defs2989">
    <linearGradient
       inkscape:collect="always"
       id="linearGradient3058">
      <stop
         style="stop-color:#000000;stop-opacity:1;"
         offset="0"
         id="stop3060" />
      <stop
         style="stop-color:#000000;stop-opacity:0;"
         offset="1"
         id="stop3062" />
    </linearGradient>
    <linearGradient
       inkscape:collect="always"
       xlink:href="#linearGradient3058"
       id="linearGradient3064"
       x1="360.23859"
       y1="165.0488"
       x2="362.64417"
       y2="180.6852"
       gradientUnits="userSpaceOnUse"
       gradientTransform="translate(-24.317184,-35.365029)" />
  </defs>
  <sodipodi:namedview
     pagecolor="#ffffff"
     bordercolor="#666666"
     borderopacity="1"
     objecttolerance="10"
     gridtolerance="10"
     guidetolerance="10"
     inkscape:pageopacity="0"
     inkscape:pageshadow="2"
     inkscape:window-width="1280"
     inkscape:window-height="1002"
     id="namedview2987"
     showgrid="false"
     inkscape:zoom="1.6627869"
     inkscape:cx="207.22069"
     inkscape:cy="68.593395"
     inkscape:window-x="-8"
     inkscape:window-y="-8"
     inkscape:window-maximized="1"
     inkscape:current-layer="svg2985"
     fit-margin-top="0"
     fit-margin-left="0"
     fit-margin-right="0"
     fit-margin-bottom="0" />
  <path
     style="fill:url(#linearGradient3064);fill-opacity:1"
     d="m 399.47891,142.4653 c 80.7125,-0.14117 -41.60468,11.88683 39.10782,12.028 80.7125,0.14116 38.1296,14.69026 -123.2954,14.69026 -161.425,0 3.47508,-26.5771 84.18758,-26.71826 z M 2.8875211,161.13536 c -2.95682499,-2.16889 -3.60929499,-5.71137 -2.11125399,-11.46274 1.92983399,-7.40914 5.21350399,-14.77195 6.58800399,-14.77195 2.16003,0 2.25547,3.24275 0.23029,7.82505 -2.729,6.17483 -3.43866,10.82864 -2.00205,13.12903 1.10319,1.76649 1.34407,1.69318 4.24015,-1.2906 1.6887799,-1.73991 3.7058899,-4.40098 4.4824599,-5.91348 0.77658,-1.5125 1.74146,-2.75 2.1442,-2.75 0.67878,0 1.80598,-1.70929 7.25399,-11 4.45307,-7.59401 11.67581,-22.59523 11.67581,-24.25 0,-0.9625 0.35175,-1.75 0.78168,-1.75 0.42993,0 1.39759,-2.1375 2.15037,-4.75 0.75278,-2.6125 2.15918,-6.549999 3.12534,-8.749999 0.96616,-2.2 3.89301,-9.625 6.50411,-16.5 2.6111,-6.875 5.12794,-12.9275 5.59298,-13.45 0.46503,-0.5225 0.84829,-1.647502 0.85168,-2.500002 0.003,-0.8525 0.58707,-2.675 1.29708,-4.05 0.71,-1.375 2.35214,-5.425 3.6492,-9 1.29706,-3.575 2.73837,-6.9275 3.20292,-7.45 0.46455,-0.5225 0.84464,-1.77583 0.84464,-2.78518 0,-1.00935 0.64462,-2.83185 1.4325,-4.05 1.8077,-2.79491 4.55517,-16.10137 3.4168,-16.54815 -1.45326,-0.57037 -0.93158,-2.92112 0.79531,-3.58379 2.14205,-0.82198 5.355385,2.11197 5.355385,4.88974 0,3.368 -3.422365,15.1275 -7.283725,25.02738 -1.9307,4.95 -4.9138,12.6 -6.62911,17 -1.71531,4.400002 -5.41358,13.625002 -8.21837,20.500002 -6.17758,15.14229 -5.9175,14.48462 -9.88667,24.999999 -5.30484,14.05392 -15.68819,33.80453 -22.156,42.1439 -1.55437,2.00415 -2.83424,4.02915 -2.84415,4.5 -0.01,0.47086 -1.77965,2.3186 -3.93274,4.1061 -3.7723199,3.13178 -8.2356799,4.18289 -10.5508299,2.48469 z M 89.589126,142.70067 c -0.66713,-0.66713 -1.20293,-3.88656 -1.20659,-7.25 l -0.007,-6.05 -1.7671,2.67943 c -2.43947,3.69892 -8.66434,8.48217 -12.82602,9.85565 -4.496915,1.48412 -7.341705,-0.26069 -10.131715,-6.21412 -7.71307,-16.45936 4.30435,-73.486501 23.775355,-112.820961 4.13971,-8.36287 8.9314,-15.9999998 10.03872,-15.9999998 0.47694,0 1.23821,-1.43189 1.6917,-3.18198 0.45349,-1.75009 1.366124,-3.36250999 2.028074,-3.58315999 2.96113,-0.98704 2.00254,3.42547999 -2.817384,12.96872979 -6.90862,13.6788 -13.41864,29.15297 -17.16314,40.79641 -1.68035,5.225 -3.42058,10.4 -3.86717,11.500002 -3.08325,7.59428 -7.314165,27.52843 -9.085495,42.806779 -0.97672,8.42446 -0.99371,12.58517 -0.0771,18.87401 1.58044,10.84345 2.2848,11.55519 7.728645,7.80972 4.38128,-3.0144 11.48622,-10.60176 11.48622,-12.26614 0,-0.5036 0.92874,-2.21992 2.06386,-3.81406 1.70804,-2.39871 7.41075,-17.07606 10.887614,-28.021959 0.84912,-2.67322 5.11068,-10.98115 6.09671,-11.88555 1.26017,-1.15586 5.42401,-7.54146 5.53108,-8.48239 0.0639,-0.56122 0.18465,-1.48916 0.26843,-2.06207 0.21887,-1.49688 6.9525,-8.458342 8.18151,-8.458342 2.87702,0 1.32428,5.980792 -2.4664,9.500002 -1.89178,1.75629 -8.5628,15.36889 -8.5628,17.47287 0,1.11492 -0.48032,2.02713 -1.06739,2.02713 -0.58992,0 -0.80025,0.84167 -0.4702,1.88158 0.38695,1.21917 0.0221,2.10225 -1.03636,2.50842 -0.91946,0.35283 -1.38887,1.2645 -1.07383,2.0855 0.30786,0.80225 -0.98704,4.51096 -2.87754,8.241569 -1.8905,3.73061 -3.445694,7.34543 -3.455974,8.03293 -0.0341,2.27913 1.932174,1.29389 2.581584,-1.29355 0.35111,-1.39896 1.14719,-2.37675 1.76905,-2.17288 2.00816,0.65835 1.77628,5.13573 -0.53027,10.23881 -1.23742,2.73769 -2.13308,5.38815 -1.99036,5.88991 0.26279,0.92391 -0.94802,4.50077 -3.465954,10.23884 -0.76052,1.73312 -1.38276,3.64562 -1.38276,4.25 0,1.26584 -3.60836,5.09887 -4.8,5.09887 -0.44,0 -1.34,-0.54 -2,-1.2 z m 9.26099,-25.41043 c 0.48704,-2.47272 0.37119,-2.38466 -0.80307,0.61043 -0.75472,1.925 -1.65686,4.625 -2.00476,6 -0.4758,1.8805 -0.2768,1.72923 0.80307,-0.61043 0.78958,-1.71074 1.69173,-4.41074 2.00476,-6 z m 94.466224,21.91898 c -1.48655,-3.90994 0.0719,-15.61621 3.03651,-22.80855 4.44419,-10.78191 7.4022,-18.714069 8.29733,-22.249999 0.59175,-2.3375 1.45009,-4.25 1.90743,-4.25 0.45733,0 0.83152,-0.675 0.83152,-1.5 0,-0.825 0.35357,-1.5 0.78571,-1.5 0.43215,0 0.82747,-0.7875 0.87851,-1.75 0.051,-0.9625 0.44076,-3.27277 0.86607,-5.13393 0.51613,-2.25861 0.42071,-3.25625 -0.28694,-3 -1.38833,0.50275 -10.43533,9.1563 -16.70834,15.98172 -6.79174,7.389809 -12.16857,10.892639 -16.72831,10.897929 -5.20056,0.006 -6.8067,-2.63854 -6.8067,-11.207499 0,-4.34551 0.71545,-8.64914 1.9995,-12.02749 1.09972,-2.8934 1.99881,-5.48573 1.99798,-5.76073 -8.2e-4,-0.275 -1.9131,2.46916 -4.24949,6.09812 -2.3364,3.62897 -4.81335,7.45397 -5.50435,8.5 -0.69101,1.04604 -1.55488,2.57688 -1.91973,3.40188 -0.36485,0.825 -2.54786,4.425 -4.85115,7.999999 -2.30328,3.575 -4.93263,7.85 -5.84299,9.5 -4.19198,7.59779 -9.68516,15.75017 -12.9709,19.25 -3.3499,3.56816 -7.53642,4.30739 -9.69108,1.71119 -1.28042,-1.54281 -0.92673,-22.32347 0.86076,-50.572649 0.3693,-5.8363 0.44645,-11.83116 0.17145,-13.32189 l -0.5,-2.71044 -1.80654,3.0719 c -0.99359,1.68954 -2.23109,3.07189 -2.75,3.07189 -1.97736,0 -0.82532,-5.10067 1.82098,-8.062402 2.26942,-2.53991 3.24961,-2.97218 5.47379,-2.41394 2.09943,0.52692 2.85615,1.46249 3.36144,4.15593 0.62106,3.310552 0.15153,22.160062 -1.22759,49.281721 l -0.63366,12.46131 4.13079,-4.17228 c 2.27194,-2.29475 4.13079,-4.60234 4.13079,-5.12798 0,-0.52563 0.3375,-1.10569 0.75,-1.28903 0.4125,-0.18333 1.8656,-2.47083 3.22911,-5.08333 1.36352,-2.6125 2.82602,-4.75 3.25,-4.75 0.42399,0 0.77089,-0.41697 0.77089,-0.92659 0,-0.50963 2.31602,-4.44713 5.14671,-8.749999 2.83068,-4.30288 6.75263,-10.29841 8.71542,-13.32341 1.9628,-3.025 3.83483,-5.725 4.16007,-6 0.32524,-0.275 1.16942,-1.92997 1.87595,-3.67771 0.70653,-1.74773 2.18955,-3.99667 3.2956,-4.99764 1.10606,-1.00096 2.65149,-3.05849 3.43431,-4.572292 0.97119,-1.87808 2.20926,-2.75236 3.89762,-2.75236 3.2941,0 3.1906,1.27645 -1.06238,13.102042 -3.49948,9.73046 -5.03516,21.63785 -3.17111,24.58823 1.66843,2.640749 7.40836,-1.2325 19.20781,-12.96124 12.75032,-12.6739 15.33789,-14.42134 18.69461,-12.62488 1.80929,0.96831 1.99589,1.76113 1.51382,6.43192 -0.30241,2.93011 -1.23213,6.82067 -2.06604,8.6457 -0.83391,1.82503 -2.04414,5.34323 -2.6894,7.81823 -0.64527,2.475 -1.5318,5.399999 -1.97009,6.499999 -5.60694,14.07215 -8.92797,24.62194 -8.95686,28.45295 l -0.026,3.45295 3.75,-3.55988 c 2.0625,-1.95793 4.56602,-3.84607 5.56338,-4.19588 0.99736,-0.34981 1.56225,-1.04236 1.25531,-1.539 -0.61482,-0.9948 1.09476,-4.69507 3.43131,-7.42683 2.99273,-3.49894 3.61251,-4.2985 8.76428,-11.30662 2.87965,-3.91728 5.23572,-7.423589 5.23572,-7.791819 0,-0.36822 0.82802,-1.55828 1.84005,-2.64456 1.01203,-1.08629 2.47382,-3.20497 3.24841,-4.70819 0.77459,-1.50322 1.64796,-2.95812 1.94081,-3.23312 0.29285,-0.275 2.4827,-3.7625 4.86633,-7.75 2.38362,-3.9875 4.73223,-7.25 5.21913,-7.25 0.4869,0 0.88634,-0.5625 0.88765,-1.25 0.002,-1.10822 4.66235,-8.662682 9.7155,-15.749282 0.98016,-1.3746 3.08264,-4.9535 4.67217,-7.9531 2.93728,-5.54297 6.10089,-8.95422 8.35995,-9.01435 1.43964,-0.0383 1.6846,3.10708 0.35177,4.51673 -1.79401,1.89741 -12.70683,32.178282 -11.89073,32.994372 0.27525,0.27525 1.57786,-1.08156 2.8947,-3.01513 1.31684,-1.93356 2.73176,-3.51865 3.14426,-3.52241 0.4125,-0.004 0.75,-0.52927 0.75,-1.16781 0,-1.54769 10.23871,-15.085842 15.51466,-20.514282 6.78723,-6.9834 10.98509,-5.39176 10.26385,3.89159 -0.79247,10.20012 -5.49564,31.892322 -10.577,48.783671 -6.48754,21.5658 -11.80368,27.95836 -17.83684,21.44848 -3.26271,-3.52053 -3.13498,-5.51587 0.79692,-12.44848 0.46791,-0.825 1.63547,-3.075 2.59458,-5 0.9591,-1.925 2.08133,-3.65 2.49383,-3.83333 0.4125,-0.18334 0.76001,-1.083339 0.77224,-1.999999 0.0122,-0.91667 0.90218,-2.79167 1.97772,-4.16667 1.07554,-1.375 1.96553,-2.85649 1.97776,-3.29221 0.0216,-0.76843 1.01451,-2.11505 3.92704,-5.32587 0.77265,-0.85177 1.6183,-3.77054 1.87924,-6.48615 0.26093,-2.71561 0.86627,-5.17965 1.34519,-5.47564 0.47892,-0.29599 0.87077,-1.61005 0.87077,-2.92013 0,-1.31008 0.38928,-2.62255 0.86506,-2.9166 0.47578,-0.29405 1.11666,-2.41047 1.42417,-4.703142 0.30752,-2.29267 0.93347,-4.44115 1.391,-4.77438 0.45754,-0.33323 0.60416,-2.40133 0.32583,-4.59577 l -0.50606,-3.9899 -3.5,4.353 c -1.925,2.39414 -4.89626,5.98959 -6.60281,7.98989 -5.06537,5.937292 -20.89498,30.090052 -24.66706,37.636901 -1.92432,3.85 -4.72062,9.925 -6.21402,13.5 -3.12994,7.49267 -5.06121,10 -7.70248,10 -2.13026,0 -3.80482,-3.1696 -1.99354,-3.77336 0.64895,-0.21632 1.17991,-1.05254 1.17991,-1.85828 0,-0.80573 0.9,-3.32776 2,-5.6045 1.1,-2.27673 2,-4.85487 2,-5.72918 0,-0.87432 0.65911,-2.53068 1.46469,-3.68081 0.80559,-1.15013 1.22419,-2.33165 0.93024,-2.6256 -0.29395,-0.29395 0.34081,-2.265569 1.41059,-4.381359 3.04489,-6.02221 10.19448,-24.21741 10.19448,-25.94424 0,-1.03084 -0.8439,-0.55321 -2.5,1.41496 -1.375,1.6341 -2.5,3.63294 -2.5,4.44187 0,0.80893 -0.9,2.61495 -2,4.01337 -1.1,1.39842 -2,2.89835 -2,3.33318 0,0.43482 -1.95682,3.73884 -4.34849,7.34227 -2.39167,3.60342 -6.52018,9.926679 -9.17447,14.051679 -5.76067,8.95262 -15.76113,22.12871 -23.33878,30.75 -4.32173,4.91694 -6.10069,6.25 -8.34059,6.25 -2.17086,0 -3.09024,-0.63932 -3.87046,-2.69145 z m 76.86808,-29.1919 c 1.21259,-2.96085 2.20471,-6.13335 2.20471,-7.05 0,-0.91666 0.3919,-2.09415 0.87089,-2.61665 1.3127,-1.431929 2.2967,-6.449999 1.26479,-6.449999 -0.49633,0 -1.16583,0.7875 -1.48777,1.75 -0.32194,0.9625 -2.62375,5.574999 -5.11512,10.249999 -4.52992,8.50028 -5.08203,10.40513 -3.90495,13.47256 0.51417,1.33991 0.92974,1.1284 2.29529,-1.16821 0.9171,-1.54239 2.65957,-5.22686 3.87216,-8.1877 z m 15.50776,9.13335 c 0.26438,-3.1625 0.98285,-7.775 1.5966,-10.25 0.61374,-2.475 1.40698,-6.075 1.76276,-8 0.35577,-1.924999 0.94287,-3.724999 1.30466,-3.999999 0.3618,-0.275 1.45159,-3.2 2.42176,-6.5 0.97018,-3.3 2.1505,-6.9 2.62294,-8 0.47245,-1.1 1.80557,-4.23426 2.96249,-6.96501 1.15692,-2.73076 2.6058,-5.27545 3.21971,-5.65487 0.61392,-0.37943 1.24765,-1.97017 1.40828,-3.53499 0.16063,-1.56482 0.57682,-4.420132 0.92487,-6.345132 l 0.63281,-3.5 -3.37757,3.25 c -3.61131,3.47491 -5.78236,4.15099 -5.78236,1.80069 0,-1.91912 5.90512,-7.44205 8.74776,-8.1816 3.92592,-1.02138 5.25315,0.20662 5.24142,4.84953 -0.012,4.76363 -0.95196,8.069442 -7.04592,24.781382 -7.0598,19.360649 -10.14036,31.013139 -8.19326,30.991769 1.20507,-0.0132 10.29991,-8.9441 16.25734,-15.964239 3.02096,-3.55985 6.72808,-7.83485 8.23803,-9.5 1.50996,-1.66514 2.74746,-3.39717 2.75,-3.84896 0.003,-0.45178 0.56713,-1.40157 1.25463,-2.11064 1.72802,-1.78222 5.43476,-6.10207 10.75,-12.5281 2.475,-2.99223 5.74921,-6.812792 7.27603,-8.490122 1.52682,-1.67734 3.32417,-4.28721 3.99411,-5.79971 0.66995,-1.5125 1.52143,-2.75 1.89218,-2.75 0.37076,0 1.38212,-0.27169 2.24746,-0.60375 2.95954,-1.13568 2.88571,2.44012 -0.13077,6.33422 -5.78189,7.464112 -17.27901,33.746912 -17.27901,39.500432 0,1.04532 -0.38765,2.658499 -0.86144,3.584839 -0.4738,0.92634 -1.13717,3.79972 -1.47416,6.38529 l -0.61271,4.70102 3.33043,-1.965 c 3.45875,-2.04071 20.61788,-18.578949 20.61788,-19.871839 0,-0.40463 1.9125,-2.78188 4.25,-5.28279 2.3375,-2.5009 5.03863,-5.61254 6.00252,-6.91476 0.96388,-1.30221 3.50211,-4.7454 5.64051,-7.65152 2.1384,-2.90612 4.94977,-6.35124 6.24748,-7.655812 2.66243,-2.67648 3.43469,-3.62997 6.90407,-8.52416 1.35048,-1.90511 3.46792,-4.60051 4.70542,-5.98978 1.2375,-1.38927 2.25,-2.86805 2.25,-3.28617 0,-0.41812 0.91412,-0.76022 2.03138,-0.76022 3.71061,0 3.2664,2.78985 -1.38769,8.71525 -4.20334,5.35152 -12.63567,21.718372 -12.64985,24.552892 -0.003,0.67752 -0.62226,2.41261 -1.37526,3.85574 -1.86137,3.5673 -4.13548,12.69255 -3.3571,13.47093 0.34674,0.34674 3.3768,-1.45818 6.73345,-4.01093 3.35666,-2.55276 6.53098,-4.37689 7.05404,-4.05361 0.52307,0.32327 0.95103,-0.30427 0.95103,-1.39453 0,-1.09026 1.04833,-3.25432 2.32962,-4.80901 4.40146,-5.34067 12.67038,-16.26977 12.67038,-16.746542 0,-0.90066 4.50127,-5.25751 7.30135,-7.06709 1.94759,-1.25866 3.11975,-1.492 3.84612,-0.76563 0.72636,0.72636 -0.35828,2.76733 -3.55895,6.6969 -6.62666,8.135742 -9.58852,14.475042 -9.58852,20.522392 0,2.76828 0.43473,5.03324 0.96607,5.03324 1.28241,0 8.23195,-3.23412 9.66969,-4.5 0.62467,-0.55 4.35936,-3.7 8.29932,-7 9.06915,-7.59606 31.06492,-29.199732 31.06492,-30.511142 0,-0.54387 0.401,-0.98886 0.89112,-0.98886 0.49011,0 3.07761,-1.81288 5.75,-4.02863 4.59459,-3.80951 8.26719,-4.79553 9.04488,-2.42838 0.18846,0.57364 -1.60459,3.32423 -3.98455,6.11243 -9.76611,11.44129 -16.01755,30.165832 -13.89028,41.604652 1.39914,7.52349 4.55661,12.73993 7.71137,12.73993 1.29769,0 2.65222,-0.47375 3.01008,-1.05279 0.35787,-0.57903 1.17192,-0.85981 1.80902,-0.62396 1.46269,0.54149 11.23835,-4.53939 15.07227,-7.83379 1.59344,-1.3692 3.25443,-2.48946 3.69109,-2.48946 1.23874,0 18.895,-17.65787 18.895,-18.89672 0,-0.60681 0.36925,-1.10328 0.82056,-1.10328 1.07618,0 11.17944,-12.619222 11.17944,-13.963402 0,-0.57013 0.43542,-1.0366 0.96761,-1.0366 1.00348,0 4.82627,-4.95791 14.10747,-18.29649 2.9837,-4.28807 6.43687,-9.01307 7.6737,-10.5 2.27574,-2.73592 2.82056,-4.20351 1.5605,-4.20351 -0.37989,0 -5.89239,3.46495 -12.25,7.69988 -19.824,13.20517 -38.94265,34.57318 -51.14494,57.162282 -3.21599,5.95349 -6.91434,9.21784 -6.91434,6.10294 0,-1.79892 4.3838,-10.9651 5.24415,-10.9651 0.41572,0 0.75585,-0.9 0.75585,-2 0,-1.1 0.45,-2 1,-2 0.55,0 1,-0.58091 1,-1.29092 0,-1.8495 8.70284,-15.332062 14,-21.689002 5.11662,-6.14027 15.91317,-17.1187 21.04651,-21.40106 4.93203,-4.11443 14.6582,-10.61902 15.87838,-10.61902 2.35651,0 9.07511,-3.31054 9.07511,-4.47169 0,-1.82408 10.85089,-5.07742 12.25422,-3.67409 1.31788,1.31788 0.21151,3.74297 -4.50335,9.87108 -1.78798,2.32392 -6.40087,8.53627 -10.25087,13.80523 -25.93658,35.495782 -34.17853,44.939782 -48.72527,55.831572 -17.51282,13.112639 -24.50032,15.135529 -32.14368,9.305649 -4.34079,-3.310879 -7.63105,-11.848519 -7.63105,-19.801219 0,-6.16794 2.54338,-18.409332 4.2885,-20.640702 0.54807,-0.70079 0.76595,-1.50471 0.48417,-1.78649 -0.28178,-0.28178 -4.50841,3.24792 -9.3925,7.843782 -13.41552,12.62381 -17.40498,16.09172 -22.95312,19.95239 -13.18542,9.17508 -17.36183,9.16638 -19.94938,-0.0416 -0.60423,-2.15019 -1.21078,-1.76577 -8.97503,5.68822 -8.73905,8.389829 -13.78001,10.792369 -17.0136,8.108729 -2.14129,-1.777109 -1.88494,-9.927809 0.51046,-16.230169 1.09972,-2.8934 1.99972,-5.70076 2,-6.23857 5.7e-4,-1.10824 -4.16178,3.77778 -11.4995,13.4988 -5.87827,7.78754 -23.20737,24.137759 -27.9865,26.405609 -9.41751,4.4689 -10.27345,-5.50039 -2.60667,-30.360339 0.58243,-1.88857 0.93439,-3.55834 0.78213,-3.7106 -0.33317,-0.33313 -8.68896,10.26726 -8.68896,11.02308 0,0.90498 -9.07424,10.597189 -19,20.293929 -7.41995,7.24875 -10.12157,9.28591 -12.33882,9.3041 l -2.83882,0.0233 z"
     id="path2995"
     inkscape:connector-curvature="0"
     sodipodi:nodetypes="ssssssssssssssssssscssssssssssssscsssccsscssssssssssssssccsssssscssssssssssssssssssssscsssssscssssssssscsssssscsscssssssssssssssssssccssssssssssscsscssscsssssssccscsssssssscsssssssssssssssssssssssssssssssssscsssssscssssscsscsssssssssscssssssssssscssscssssssssssssssssscssssssssssssssssssssssssssssssssssssssscssscs" />
</svg>
