<?xml version="1.0" encoding="UTF-8" standalone="no"?>
<!-- Generator: Adobe Illustrator 12.0.1, SVG Export Plug-In . SVG Version: 6.00 Build 51448)  -->
<svg
   xmlns:dc="http://purl.org/dc/elements/1.1/"
   xmlns:cc="http://web.resource.org/cc/"
   xmlns:rdf="http://www.w3.org/1999/02/22-rdf-syntax-ns#"
   xmlns:svg="http://www.w3.org/2000/svg"
   xmlns="http://www.w3.org/2000/svg"
   xmlns:sodipodi="http://sodipodi.sourceforge.net/DTD/sodipodi-0.dtd"
   xmlns:inkscape="http://www.inkscape.org/namespaces/inkscape"
   version="1.1"
   id="Layer_1"
   width="405.686"
   height="327.631"
   viewBox="0 0 405.686 327.631"
   style="overflow:visible;enable-background:new 0 0 405.686 327.631;"
   xml:space="preserve"
   sodipodi:version="0.32"
   inkscape:version="0.45.1"
   sodipodi:docname="Cholecalciferol.svg"
   inkscape:output_extension="org.inkscape.output.svg.inkscape"
   sodipodi:docbase="C:\Dokumente und Einstellungen\Jonas Töle\Eigene Dateien"><metadata
   id="metadata182"><rdf:RDF><cc:Work
       rdf:about=""><dc:format>image/svg+xml</dc:format><dc:type
         rdf:resource="http://purl.org/dc/dcmitype/StillImage" /></cc:Work></rdf:RDF></metadata><defs
   id="defs180" /><sodipodi:namedview
   inkscape:window-height="579"
   inkscape:window-width="801"
   inkscape:pageshadow="2"
   inkscape:pageopacity="0.0"
   guidetolerance="10.0"
   gridtolerance="10.0"
   objecttolerance="10.0"
   borderopacity="1.0"
   bordercolor="#666666"
   pagecolor="#ffffff"
   id="base"
   inkscape:zoom="1.1537369"
   inkscape:cx="202.843"
   inkscape:cy="163.81551"
   inkscape:window-x="110"
   inkscape:window-y="110"
   inkscape:current-layer="Layer_1" />
<path
   d="M 130.66105,177.7981 L 132.277,178.7006 L 99.64355,197.5581 L 98.0295,196.6556 L 130.66105,177.7981 z "
   id="polygon3" />
<path
   d="M 130.66105,141.0331 L 131.46855,140.5581 L 132.277,141.0331 L 132.277,178.7006 L 130.66105,177.7981 L 130.66105,141.0331 z "
   id="polygon5" />
<path
   d="M 125.0095,143.8356 L 126.6245,143.8356 L 126.6245,174.9956 L 125.0095,174.9956 L 125.0095,143.8356 z "
   id="rect7" />
<path
   d="M 98.0295,122.1756 L 99.64355,121.2256 L 131.46855,139.6081 L 131.46855,140.5581 L 130.66105,141.0331 L 98.0295,122.1756 z "
   id="polygon9" />
<path
   d="M 163.342,121.2256 L 164.14855,121.7006 L 164.24355,122.6031 L 132.277,141.0331 L 131.46855,140.5581 L 131.46855,139.6081 L 163.342,121.2256 z "
   id="polygon11" />
<path
   d="M 163.342,84.4606 L 164.14855,83.9856 L 164.95605,84.6031 L 164.95605,121.1306 L 164.14855,121.7006 L 163.342,121.2256 L 163.342,84.4606 z "
   id="polygon13" />
<path
   d="M 131.46855,66.0781 L 131.46855,64.2256 L 163.152,82.5131 L 164.14855,83.9856 L 163.342,84.4606 L 131.46855,66.0781 z "
   id="polygon15" />
<path
   d="M 99.64355,84.4606 L 98.0295,83.5581 L 131.46855,64.2256 L 131.46855,66.0781 L 99.64355,84.4606 z "
   id="polygon17" />
<path
   d="M 99.64355,121.2256 L 98.0295,122.1756 L 98.0295,83.5581 L 99.64355,84.4606 L 99.64355,121.2256 z "
   id="polygon19" />
<path
   d="M 199.6795,132.3881 L 200.297,134.2881 L 164.24355,122.6031 L 164.14855,121.7006 L 164.95605,121.1306 L 199.6795,132.3881 z "
   id="polygon21" />
<path
   d="M 221.1495,102.8431 L 223.1445,102.8431 L 200.297,134.2881 L 199.6795,132.3881 L 221.1495,102.8431 z "
   id="polygon23" />
<path
   d="M 199.6795,73.2981 L 200.01105,72.3481 L 200.81855,72.1106 L 223.1445,102.8431 L 221.1495,102.8431 L 199.6795,73.2981 z "
   id="polygon25" />
<path
   d="M 164.95605,84.6031 L 164.14855,83.9856 L 165.052,82.8456 L 199.2045,71.7781 L 200.01105,72.3481 L 199.6795,73.2981 L 164.95605,84.6031 z "
   id="polygon27" />
<path
   d="M 199.2045,34.2056 L 200.81855,35.1081 L 200.81855,72.1106 L 200.01105,72.3481 L 199.2045,71.7781 L 199.2045,34.2056 z "
   id="polygon29" />
<g
   id="g31"
   transform="matrix(0.95,0,0,0.95,10.14215,8.1908)">
	<path
   d="M 130.475,17.484 L 130.475,0.297 L 132.756,0.297 L 132.756,7.36 L 141.647,7.36 L 141.647,0.297 L 143.928,0.297 L 143.928,17.485 L 141.647,17.485 L 141.647,9.391 L 132.756,9.391 L 132.756,17.485 L 130.475,17.485 L 130.475,17.484 z "
   id="path33" />
</g>
<g
   id="g35"
   transform="matrix(0.95,0,0,0.95,10.14215,8.1908)">
	<path
   d="M 145.937,18.578 L 147.515,18.359 C 147.698,19.255 148.007,19.901 148.443,20.297 C 148.88,20.692 149.415,20.89 150.05,20.89 C 150.803,20.89 151.436,20.632 151.949,20.118 C 152.462,19.602 152.718,18.964 152.718,18.202 C 152.718,17.476 152.48,16.878 152.002,16.406 C 151.525,15.934 150.919,15.699 150.183,15.699 C 149.882,15.699 149.508,15.758 149.061,15.875 L 149.238,14.484 C 149.344,14.496 149.429,14.502 149.494,14.502 C 150.168,14.502 150.775,14.327 151.315,13.976 C 151.855,13.625 152.125,13.084 152.125,12.353 C 152.125,11.774 151.928,11.294 151.534,10.915 C 151.14,10.535 150.632,10.345 150.009,10.345 C 149.392,10.345 148.877,10.539 148.466,10.927 C 148.055,11.315 147.79,11.897 147.673,12.673 L 146.095,12.392 C 146.288,11.33 146.729,10.507 147.415,9.924 C 148.101,9.34 148.955,9.048 149.976,9.048 C 150.68,9.048 151.329,9.198 151.921,9.5 C 152.513,9.801 152.966,10.212 153.281,10.732 C 153.594,11.253 153.752,11.805 153.752,12.39 C 153.752,12.946 153.603,13.452 153.304,13.908 C 153.005,14.364 152.563,14.726 151.977,14.996 C 152.739,15.172 153.331,15.537 153.756,16.09 C 154.18,16.645 154.393,17.337 154.393,18.169 C 154.393,19.295 153.982,20.248 153.16,21.03 C 152.338,21.812 151.299,22.204 150.043,22.204 C 148.91,22.204 147.969,21.867 147.221,21.195 C 146.469,20.521 146.042,19.649 145.937,18.578 z "
   id="path37" />
</g>
<g
   id="g39"
   transform="matrix(0.95,0,0,0.95,10.14215,8.1908)">
	<path
   d="M 168.514,11.457 L 170.795,12.031 C 170.319,13.901 169.462,15.327 168.226,16.308 C 166.989,17.289 165.476,17.781 163.689,17.781 C 161.839,17.781 160.335,17.404 159.176,16.649 C 158.017,15.895 157.135,14.801 156.53,13.371 C 155.925,11.94 155.623,10.403 155.623,8.762 C 155.623,6.972 155.964,5.409 156.647,4.076 C 157.33,2.743 158.301,1.729 159.562,1.038 C 160.822,0.347 162.208,-2.8865799e-015 163.722,-2.8865799e-015 C 165.439,-2.8865799e-015 166.882,0.438 168.052,1.314 C 169.223,2.191 170.038,3.422 170.498,5.011 L 168.264,5.538 C 167.866,4.288 167.289,3.378 166.533,2.808 C 165.776,2.238 164.824,1.953 163.678,1.953 C 162.36,1.953 161.258,2.269 160.372,2.902 C 159.487,3.535 158.865,4.384 158.506,5.451 C 158.147,6.518 157.968,7.617 157.968,8.75 C 157.968,10.211 158.18,11.486 158.605,12.576 C 159.03,13.666 159.69,14.48 160.587,15.019 C 161.484,15.558 162.454,15.828 163.499,15.828 C 164.77,15.828 165.845,15.461 166.726,14.726 C 167.607,13.991 168.202,12.902 168.514,11.457 z "
   id="path41" />
</g>
<path
   d="M 174.8845,24.3256 L 178.49355,18.0556 L 179.82355,19.0531 L 176.35605,24.9906 L 174.8845,24.3256 z "
   id="polygon43" />
<path
   d="M 178.827,26.0356 L 181.9145,20.6206 L 183.24355,21.6181 L 180.2995,26.6531 L 178.827,26.0356 z "
   id="polygon45" />
<path
   d="M 182.76855,27.6981 L 185.3345,23.2331 L 186.6645,24.1831 L 184.242,28.3156 L 182.76855,27.6981 z "
   id="polygon47" />
<path
   d="M 186.712,29.3606 L 188.7545,25.7981 L 190.0845,26.7481 L 188.1845,29.9781 L 186.712,29.3606 z "
   id="polygon49" />
<path
   d="M 190.6545,31.0231 L 192.17355,28.3631 L 193.5045,29.3606 L 192.127,31.6406 L 190.6545,31.0231 z "
   id="polygon51" />
<path
   d="M 194.597,32.6856 L 195.59355,30.9281 L 196.877,31.9256 L 196.06855,33.3506 L 194.597,32.6856 z "
   id="polygon53" />
<path
   d="M 232.59605,14.8731 L 232.59605,16.7731 L 200.81855,35.1081 L 199.2045,34.2056 L 232.59605,14.8731 z "
   id="polygon55" />
<path
   d="M 265.2295,33.7306 L 265.2295,35.5831 L 232.59605,16.7731 L 232.59605,14.8731 L 265.2295,33.7306 z "
   id="polygon57" />
<path
   d="M 297.862,14.8731 L 297.862,16.7731 L 265.2295,35.5831 L 265.2295,33.7306 L 297.862,14.8731 z "
   id="polygon59" />
<path
   d="M 330.4945,33.7306 L 330.4945,34.6331 L 329.68605,35.1081 L 297.862,16.7731 L 297.862,14.8731 L 330.4945,33.7306 z "
   id="polygon61" />
<g
   id="g63"
   transform="matrix(0.95,0,0,0.95,10.14215,8.1908)">
	<path
   d="M 377.006,11.457 L 379.287,12.031 C 378.811,13.901 377.955,15.327 376.719,16.308 C 375.481,17.289 373.969,17.781 372.182,17.781 C 370.332,17.781 368.828,17.404 367.668,16.649 C 366.51,15.895 365.627,14.801 365.023,13.371 C 364.418,11.94 364.115,10.403 364.115,8.762 C 364.115,6.972 364.457,5.409 365.139,4.076 C 365.821,2.743 366.792,1.729 368.054,1.038 C 369.314,0.347 370.7,-2.8865799e-015 372.214,-2.8865799e-015 C 373.931,-2.8865799e-015 375.374,0.438 376.544,1.314 C 377.714,2.191 378.529,3.422 378.989,5.011 L 376.755,5.538 C 376.358,4.288 375.78,3.378 375.025,2.808 C 374.267,2.238 373.316,1.953 372.17,1.953 C 370.852,1.953 369.75,2.269 368.863,2.902 C 367.978,3.535 367.356,4.384 366.998,5.451 C 366.639,6.517 366.459,7.617 366.459,8.75 C 366.459,10.211 366.672,11.486 367.097,12.576 C 367.522,13.666 368.182,14.48 369.078,15.019 C 369.974,15.558 370.945,15.828 371.99,15.828 C 373.261,15.828 374.336,15.461 375.217,14.726 C 376.098,13.991 376.694,12.902 377.006,11.457 z "
   id="path65" />
	<path
   d="M 382.182,17.484 L 382.182,0.297 L 384.463,0.297 L 384.463,7.36 L 393.354,7.36 L 393.354,0.297 L 395.635,0.297 L 395.635,17.485 L 393.354,17.485 L 393.354,9.391 L 384.463,9.391 L 384.463,17.485 L 382.182,17.485 L 382.182,17.484 z "
   id="path67" />
</g>
<g
   id="g69"
   transform="matrix(0.95,0,0,0.95,10.14215,8.1908)">
	<path
   d="M 397.232,18.578 L 398.81,18.359 C 398.993,19.255 399.302,19.901 399.738,20.297 C 400.175,20.692 400.711,20.89 401.345,20.89 C 402.098,20.89 402.732,20.632 403.243,20.118 C 403.757,19.602 404.013,18.964 404.013,18.202 C 404.013,17.476 403.775,16.878 403.297,16.406 C 402.82,15.934 402.214,15.699 401.478,15.699 C 401.177,15.699 400.803,15.758 400.356,15.875 L 400.533,14.484 C 400.638,14.496 400.724,14.502 400.789,14.502 C 401.463,14.502 402.07,14.327 402.61,13.976 C 403.15,13.625 403.42,13.084 403.42,12.353 C 403.42,11.774 403.223,11.294 402.829,10.915 C 402.435,10.536 401.927,10.345 401.304,10.345 C 400.687,10.345 400.172,10.539 399.76,10.927 C 399.349,11.315 399.084,11.897 398.967,12.673 L 397.389,12.392 C 397.582,11.33 398.023,10.507 398.709,9.924 C 399.395,9.34 400.248,9.048 401.27,9.048 C 401.974,9.048 402.623,9.198 403.215,9.5 C 403.807,9.801 404.26,10.212 404.574,10.732 C 404.887,11.253 405.045,11.805 405.045,12.39 C 405.045,12.946 404.896,13.452 404.597,13.908 C 404.298,14.364 403.856,14.726 403.27,14.996 C 404.032,15.172 404.624,15.537 405.049,16.09 C 405.473,16.645 405.686,17.337 405.686,18.169 C 405.686,19.295 405.275,20.248 404.454,21.03 C 403.632,21.812 402.593,22.204 401.337,22.204 C 400.204,22.204 399.263,21.867 398.515,21.195 C 397.765,20.521 397.338,19.649 397.232,18.578 z "
   id="path71" />
</g>
<path
   d="M 353.91105,20.1931 L 354.7195,21.5706 L 331.302,35.1081 L 330.4945,34.6331 L 330.4945,33.7306 L 353.91105,20.1931 z "
   id="polygon73" />
<g
   id="g75"
   transform="matrix(0.95,0,0,0.95,10.14215,8.1908)">
	<path
   d="M 342.656,70.906 L 344.937,71.48 C 344.46,73.35 343.604,74.776 342.368,75.757 C 341.131,76.738 339.619,77.23 337.832,77.23 C 335.982,77.23 334.478,76.853 333.318,76.098 C 332.159,75.344 331.277,74.25 330.672,72.82 C 330.067,71.39 329.765,69.852 329.765,68.211 C 329.765,66.421 330.107,64.858 330.788,63.525 C 331.472,62.192 332.442,61.178 333.703,60.487 C 334.963,59.796 336.349,59.449 337.863,59.449 C 339.58,59.449 341.023,59.887 342.193,60.763 C 343.364,61.64 344.178,62.871 344.639,64.46 L 342.405,64.987 C 342.007,63.737 341.43,62.827 340.674,62.257 C 339.918,61.687 338.965,61.402 337.819,61.402 C 336.501,61.402 335.399,61.718 334.513,62.351 C 333.628,62.984 333.005,63.833 332.647,64.9 C 332.289,65.967 332.109,67.066 332.109,68.199 C 332.109,69.66 332.322,70.935 332.746,72.025 C 333.172,73.115 333.832,73.929 334.728,74.468 C 335.624,75.007 336.595,75.277 337.64,75.277 C 338.91,75.277 339.986,74.91 340.867,74.175 C 341.748,73.44 342.344,72.352 342.656,70.906 z "
   id="path77" />
	<path
   d="M 347.832,76.934 L 347.832,59.746 L 350.113,59.746 L 350.113,66.809 L 359.004,66.809 L 359.004,59.746 L 361.285,59.746 L 361.285,76.934 L 359.004,76.934 L 359.004,68.84 L 350.113,68.84 L 350.113,76.934 L 347.832,76.934 z "
   id="path79" />
</g>
<g
   id="g81"
   transform="matrix(0.95,0,0,0.95,10.14215,8.1908)">
	<path
   d="M 362.883,78.027 L 364.461,77.808 C 364.643,78.704 364.953,79.35 365.389,79.746 C 365.825,80.141 366.361,80.339 366.996,80.339 C 367.748,80.339 368.382,80.081 368.894,79.567 C 369.407,79.051 369.664,78.413 369.664,77.651 C 369.664,76.925 369.426,76.327 368.947,75.855 C 368.47,75.383 367.864,75.148 367.129,75.148 C 366.828,75.148 366.453,75.207 366.006,75.324 L 366.184,73.933 C 366.289,73.945 366.375,73.951 366.44,73.951 C 367.114,73.951 367.721,73.776 368.26,73.425 C 368.8,73.074 369.071,72.533 369.071,71.802 C 369.071,71.223 368.874,70.743 368.479,70.364 C 368.085,69.984 367.577,69.794 366.954,69.794 C 366.337,69.794 365.823,69.988 365.411,70.376 C 364.999,70.764 364.735,71.346 364.618,72.122 L 363.04,71.841 C 363.233,70.779 363.673,69.956 364.36,69.373 C 365.046,68.789 365.899,68.497 366.921,68.497 C 367.624,68.497 368.273,68.647 368.865,68.949 C 369.458,69.25 369.911,69.661 370.225,70.181 C 370.538,70.702 370.696,71.254 370.696,71.839 C 370.696,72.395 370.546,72.901 370.247,73.357 C 369.948,73.813 369.507,74.175 368.921,74.445 C 369.683,74.621 370.275,74.986 370.7,75.539 C 371.124,76.094 371.337,76.786 371.337,77.618 C 371.337,78.744 370.925,79.697 370.104,80.479 C 369.283,81.261 368.244,81.653 366.988,81.653 C 365.854,81.653 364.914,81.316 364.166,80.644 C 363.414,79.97 362.988,79.099 362.883,78.027 z "
   id="path83" />
</g>
<path
   d="M 331.302,62.5156 L 329.68605,62.5156 L 329.68605,35.1081 L 330.4945,34.6331 L 331.302,35.1081 L 331.302,62.5156 z "
   id="polygon85" />
<g
   id="g87"
   transform="matrix(0.95,0,0,0.95,10.14215,8.1908)">
	<path
   d="M 167.556,43.557 L 169.837,44.131 C 169.361,46.001 168.504,47.427 167.268,48.408 C 166.031,49.389 164.518,49.881 162.731,49.881 C 160.881,49.881 159.377,49.504 158.218,48.749 C 157.059,47.995 156.177,46.901 155.572,45.471 C 154.967,44.04 154.665,42.503 154.665,40.862 C 154.665,39.072 155.006,37.509 155.689,36.176 C 156.372,34.843 157.343,33.829 158.604,33.138 C 159.864,32.447 161.25,32.1 162.764,32.1 C 164.481,32.1 165.924,32.538 167.094,33.414 C 168.265,34.291 169.08,35.522 169.54,37.111 L 167.306,37.638 C 166.908,36.388 166.331,35.478 165.575,34.908 C 164.818,34.338 163.866,34.053 162.72,34.053 C 161.402,34.053 160.3,34.369 159.414,35.002 C 158.529,35.635 157.907,36.484 157.548,37.551 C 157.189,38.618 157.01,39.717 157.01,40.85 C 157.01,42.311 157.222,43.586 157.647,44.676 C 158.072,45.766 158.732,46.58 159.629,47.119 C 160.526,47.658 161.496,47.928 162.541,47.928 C 163.812,47.928 164.887,47.561 165.768,46.826 C 166.649,46.091 167.244,45.002 167.556,43.557 z "
   id="path89" />
	<path
   d="M 172.732,49.584 L 172.732,32.396 L 175.013,32.396 L 175.013,39.459 L 183.904,39.459 L 183.904,32.396 L 186.185,32.396 L 186.185,49.584 L 183.904,49.584 L 183.904,41.49 L 175.013,41.49 L 175.013,49.584 L 172.732,49.584 z "
   id="path91" />
</g>
<g
   id="g93"
   transform="matrix(0.95,0,0,0.95,10.14215,8.1908)">
	<path
   d="M 187.782,50.678 L 189.36,50.459 C 189.543,51.355 189.852,52.001 190.288,52.397 C 190.725,52.792 191.26,52.99 191.895,52.99 C 192.648,52.99 193.281,52.732 193.794,52.218 C 194.307,51.702 194.563,51.064 194.563,50.302 C 194.563,49.576 194.325,48.978 193.847,48.506 C 193.37,48.034 192.764,47.799 192.028,47.799 C 191.727,47.799 191.353,47.858 190.906,47.975 L 191.083,46.584 C 191.189,46.596 191.274,46.602 191.339,46.602 C 192.013,46.602 192.62,46.427 193.16,46.076 C 193.7,45.725 193.97,45.184 193.97,44.453 C 193.97,43.874 193.773,43.394 193.379,43.015 C 192.985,42.635 192.477,42.445 191.854,42.445 C 191.237,42.445 190.722,42.639 190.311,43.027 C 189.9,43.415 189.635,43.997 189.518,44.773 L 187.94,44.492 C 188.133,43.43 188.574,42.607 189.26,42.024 C 189.946,41.44 190.8,41.148 191.821,41.148 C 192.525,41.148 193.174,41.298 193.766,41.6 C 194.358,41.901 194.811,42.312 195.126,42.832 C 195.439,43.353 195.597,43.905 195.597,44.49 C 195.597,45.046 195.448,45.552 195.149,46.008 C 194.85,46.464 194.408,46.826 193.822,47.096 C 194.584,47.272 195.176,47.637 195.601,48.19 C 196.025,48.745 196.238,49.437 196.238,50.269 C 196.238,51.395 195.827,52.348 195.005,53.13 C 194.183,53.912 193.144,54.304 191.888,54.304 C 190.755,54.304 189.814,53.967 189.066,53.295 C 188.314,52.62 187.888,51.749 187.782,50.678 z "
   id="path95" />
</g>
<path
   d="M 160.492,57.6706 L 167.7595,57.6706 L 165.052,82.8456 L 164.14855,83.9856 L 163.152,82.5131 L 160.492,57.6706 z "
   id="polygon97" />
<g
   id="g99"
   transform="matrix(0.95,0,0,0.95,10.14215,8.1908)">
	<path
   d="M 155.4,168.634 L 155.4,151.446 L 157.681,151.446 L 157.681,158.509 L 166.572,158.509 L 166.572,151.446 L 168.853,151.446 L 168.853,168.634 L 166.572,168.634 L 166.572,160.54 L 157.681,160.54 L 157.681,168.634 L 155.4,168.634 z "
   id="path101" />
</g>
<path
   d="M 167.7595,149.8681 L 160.492,149.8681 L 160.68105,148.2531 L 167.56855,148.2531 L 167.7595,149.8681 z "
   id="polygon103" />
<path
   d="M 167.23605,145.4031 L 161.0145,145.4031 L 161.2045,143.7881 L 167.047,143.7881 L 167.23605,145.4031 z "
   id="polygon105" />
<path
   d="M 166.7145,140.8906 L 161.5845,140.8906 L 161.7745,139.2756 L 166.52355,139.2756 L 166.7145,140.8906 z "
   id="polygon107" />
<path
   d="M 166.192,136.3781 L 162.10605,136.3781 L 162.297,134.7631 L 166.002,134.7631 L 166.192,136.3781 z "
   id="polygon109" />
<path
   d="M 165.66855,131.8656 L 162.6295,131.8656 L 162.81855,130.2506 L 165.4795,130.2506 L 165.66855,131.8656 z "
   id="polygon111" />
<path
   d="M 165.147,127.3531 L 163.152,127.3531 L 163.342,125.7381 L 164.95605,125.7381 L 165.147,127.3531 z "
   id="polygon113" />
<g
   id="g115"
   transform="matrix(0.95,0,0,0.95,10.14215,8.1908)">
	<path
   d="M 230.85,64.734 L 230.85,47.547 L 233.131,47.547 L 233.131,54.61 L 242.022,54.61 L 242.022,47.547 L 244.303,47.547 L 244.303,64.735 L 242.022,64.735 L 242.022,56.641 L 233.131,56.641 L 233.131,64.735 L 230.85,64.735 L 230.85,64.734 z "
   id="path117" />
</g>
<path
   d="M 224.52105,60.5681 L 226.7545,67.4556 L 225.187,67.7881 L 223.0495,61.2331 L 224.52105,60.5681 z "
   id="polygon119" />
<path
   d="M 220.627,62.3731 L 222.5745,68.3106 L 220.95855,68.5956 L 219.1545,63.0856 L 220.627,62.3731 z "
   id="polygon121" />
<path
   d="M 216.732,64.1781 L 218.34605,69.1181 L 216.732,69.4031 L 215.25855,64.8906 L 216.732,64.1781 z "
   id="polygon123" />
<path
   d="M 212.83605,66.0306 L 214.1195,69.9256 L 212.5045,70.2581 L 211.3645,66.6956 L 212.83605,66.0306 z "
   id="polygon125" />
<path
   d="M 208.942,67.8356 L 209.892,70.7331 L 208.3245,71.0656 L 207.4695,68.5006 L 208.942,67.8356 z "
   id="polygon127" />
<path
   d="M 205.047,69.6406 L 205.71105,71.5406 L 204.097,71.8731 L 203.57355,70.3531 L 205.047,69.6406 z "
   id="polygon129" />
<path
   d="M 99.64355,234.3231 L 98.837,234.7981 L 98.0295,234.3231 L 98.0295,196.6556 L 99.64355,197.5581 L 99.64355,234.3231 z "
   id="polygon131" />
<path
   d="M 103.68105,200.3606 L 105.29605,200.3606 L 105.29605,231.5206 L 103.68105,231.5206 L 103.68105,200.3606 z "
   id="rect133" />
<path
   d="M 67.012,254.1306 L 65.397,253.1806 L 98.0295,234.3231 L 98.837,234.7981 L 98.837,235.7481 L 67.012,254.1306 z "
   id="polygon135" />
<path
   d="M 67.012,290.8956 L 65.397,291.8456 L 65.397,253.1806 L 67.012,254.1306 L 67.012,290.8956 z "
   id="polygon137" />
<path
   d="M 98.837,309.2781 L 98.837,311.1306 L 65.397,291.8456 L 67.012,290.8956 L 98.837,309.2781 z "
   id="polygon139" />
<path
   d="M 130.66105,290.8956 L 132.277,291.8456 L 98.837,311.1306 L 98.837,309.2781 L 130.66105,290.8956 z "
   id="polygon141" />
<path
   d="M 130.66105,254.1306 L 132.277,253.1806 L 132.277,291.8456 L 130.66105,290.8956 L 130.66105,254.1306 z "
   id="polygon143" />
<path
   d="M 98.837,235.7481 L 98.837,234.7981 L 99.64355,234.3231 L 132.277,253.1806 L 130.66105,254.1306 L 98.837,235.7481 z "
   id="polygon145" />
<g
   id="g147"
   transform="matrix(0.95,0,0,0.95,10.14215,8.1908)">
	<path
   d="M 0,327.334 L 0,310.146 L 2.281,310.146 L 2.281,317.209 L 11.172,317.209 L 11.172,310.146 L 13.453,310.146 L 13.453,327.334 L 11.172,327.334 L 11.172,319.24 L 2.281,319.24 L 2.281,327.334 L 0,327.334 z "
   id="path149" />
	<path
   d="M 16.551,318.969 C 16.551,316.116 17.317,313.884 18.849,312.271 C 20.381,310.657 22.359,309.85 24.782,309.85 C 26.369,309.85 27.799,310.229 29.073,310.987 C 30.347,311.746 31.318,312.802 31.987,314.158 C 32.656,315.514 32.989,317.052 32.989,318.77 C 32.989,320.513 32.637,322.072 31.934,323.447 C 31.231,324.822 30.234,325.864 28.944,326.571 C 27.654,327.278 26.263,327.632 24.77,327.632 C 23.152,327.632 21.706,327.241 20.432,326.46 C 19.158,325.679 18.193,324.611 17.536,323.26 C 16.879,321.909 16.551,320.478 16.551,318.969 z M 18.895,318.998 C 18.895,321.068 19.452,322.699 20.566,323.891 C 21.68,325.083 23.078,325.678 24.758,325.678 C 26.47,325.678 27.879,325.076 28.986,323.873 C 30.092,322.67 30.645,320.963 30.645,318.752 C 30.645,317.354 30.409,316.133 29.936,315.09 C 29.463,314.047 28.771,313.238 27.86,312.664 C 26.949,312.09 25.927,311.803 24.794,311.803 C 23.184,311.803 21.798,312.356 20.637,313.461 C 19.476,314.566 18.895,316.412 18.895,318.998 z "
   id="path151" />
</g>
<path
   d="M 44.022,308.3281 L 40.41105,302.0581 L 41.8845,301.3931 L 45.352,307.3781 L 44.022,308.3281 z "
   id="polygon153" />
<path
   d="M 47.5845,305.6681 L 44.497,300.3006 L 45.96855,299.6356 L 48.9145,304.7181 L 47.5845,305.6681 z "
   id="polygon155" />
<path
   d="M 51.147,303.0081 L 48.58105,298.5431 L 50.0545,297.9256 L 52.4295,302.0581 L 51.147,303.0081 z "
   id="polygon157" />
<path
   d="M 54.7095,300.3481 L 52.61855,296.8331 L 54.1395,296.1681 L 55.992,299.3981 L 54.7095,300.3481 z "
   id="polygon159" />
<path
   d="M 58.22355,297.6881 L 56.7045,295.0756 L 58.22355,294.4106 L 59.5545,296.7381 L 58.22355,297.6881 z "
   id="polygon161" />
<path
   d="M 61.78605,295.0756 L 60.7895,293.3181 L 62.3095,292.7006 L 63.117,294.0781 L 61.78605,295.0756 z "
   id="polygon163" />
<g
   id="g165"
   transform="matrix(0.95,0,0,0.95,10.14215,8.1908)">
	<path
   d="M 167.556,242.007 L 169.837,242.581 C 169.361,244.451 168.504,245.877 167.268,246.858 C 166.031,247.839 164.518,248.331 162.731,248.331 C 160.881,248.331 159.377,247.954 158.218,247.199 C 157.059,246.445 156.177,245.351 155.572,243.921 C 154.967,242.49 154.665,240.953 154.665,239.312 C 154.665,237.522 155.006,235.959 155.689,234.626 C 156.372,233.293 157.343,232.279 158.604,231.588 C 159.864,230.897 161.25,230.55 162.764,230.55 C 164.481,230.55 165.924,230.988 167.094,231.864 C 168.265,232.741 169.08,233.972 169.54,235.561 L 167.306,236.088 C 166.908,234.838 166.331,233.928 165.575,233.358 C 164.818,232.788 163.866,232.503 162.72,232.503 C 161.402,232.503 160.3,232.819 159.414,233.452 C 158.529,234.085 157.907,234.934 157.548,236.001 C 157.189,237.068 157.01,238.167 157.01,239.3 C 157.01,240.761 157.222,242.036 157.647,243.126 C 158.072,244.216 158.732,245.03 159.629,245.569 C 160.526,246.108 161.496,246.378 162.541,246.378 C 163.812,246.378 164.887,246.011 165.768,245.276 C 166.649,244.541 167.244,243.452 167.556,242.007 z "
   id="path167" />
	<path
   d="M 172.732,248.034 L 172.732,230.846 L 175.013,230.846 L 175.013,237.909 L 183.904,237.909 L 183.904,230.846 L 186.185,230.846 L 186.185,248.034 L 183.904,248.034 L 183.904,239.94 L 175.013,239.94 L 175.013,248.034 L 172.732,248.034 z "
   id="path169" />
</g>
<g
   id="g171"
   transform="matrix(0.95,0,0,0.95,10.14215,8.1908)">
	<path
   d="M 196.095,251.019 L 196.095,252.535 L 187.564,252.535 C 187.552,252.154 187.614,251.788 187.75,251.436 C 187.968,250.856 188.317,250.285 188.798,249.723 C 189.278,249.161 189.968,248.512 190.868,247.776 C 192.264,246.623 193.21,245.712 193.708,245.042 C 194.206,244.372 194.455,243.737 194.455,243.139 C 194.455,242.513 194.23,241.986 193.78,241.555 C 193.33,241.125 192.743,240.91 192.02,240.91 C 191.254,240.91 190.643,241.139 190.184,241.598 C 189.725,242.057 189.493,242.692 189.487,243.503 L 187.862,243.331 C 187.973,242.115 188.393,241.189 189.122,240.553 C 189.85,239.915 190.828,239.597 192.056,239.597 C 193.295,239.597 194.276,239.94 194.998,240.626 C 195.72,241.312 196.081,242.162 196.081,243.176 C 196.081,243.692 195.975,244.199 195.764,244.697 C 195.553,245.195 195.201,245.72 194.711,246.271 C 194.22,246.822 193.407,247.578 192.271,248.539 C 191.32,249.337 190.709,249.877 190.438,250.162 C 190.167,250.445 189.942,250.731 189.765,251.018 L 196.095,251.018 L 196.095,251.019 z "
   id="path173" />
</g>
<path
   d="M 153.5095,236.7456 L 154.317,238.1231 L 129.047,252.7056 L 128.2395,251.3281 L 153.5095,236.7456 z "
   id="polygon175" />
<path
   d="M 156.3595,241.6381 L 157.167,243.0156 L 131.897,257.5981 L 131.0895,256.2206 L 156.3595,241.6381 z "
   id="polygon177" />
</svg>